<?xml version="1.0"?>
<svg version="1.1" xmlns="http://www.w3.org/2000/svg" width="400px" height="200px" style="border: dashed 2px #aaa"><path fill="#fafafa" d="M146.568,114.448c0,0.42-0.196,0.672-0.616,0.672l-13.636,0c-0.364,0-0.532-0.252-0.532-0.588l0-0.868c0-0.336,0.056-0.56,0.28-0.896l9.268-14.084l0-0.028l-8.204,0c-0.504,0-0.7-0.168-0.7-0.644l0-1.708c0-0.364,0.168-0.56,0.56-0.56l12.516,0c0.504,0,0.672,0.252,0.672,0.616l0,0.672c0,0.42-0.056,0.784-0.336,1.204l-9.212,13.944l0,0.028l9.296,0c0.42,0,0.644,0.196,0.644,0.644l0,1.596z M163.998,114.588c0,0.336-0.224,0.532-0.56,0.532l-1.344,0c-1.456,0-2.1-0.7-2.296-1.652l-0.056,0c-0.7,1.036-2.52,1.988-4.06,1.988c-3.948,0-5.74-3.248-5.74-6.888c0-4.844,2.912-7.392,6.048-7.392c1.484,0,2.884,0.672,3.584,1.624l0.056-0.756c0.028-0.308,0.252-0.504,0.588-0.504l1.96,0c0.364,0,0.588,0.196,0.588,0.616l0,9.716c0,0.392,0.056,0.672,0.168,0.812c0.084,0.084,0.196,0.112,0.336,0.112l0.224,0c0.336,0,0.504,0.112,0.504,0.476l0,1.316z M159.378,110.78l0-5.404c-0.56-0.812-1.708-1.428-2.772-1.428c-1.708,0-3.164,1.456-3.164,4.396c0,2.352,0.896,4.34,2.968,4.34c1.372,0,2.548-1.036,2.968-1.904z M179.44,114.784c0,0.252-0.252,0.336-0.532,0.336l-2.408,0c-0.504,0-0.84-0.14-1.12-0.588l-3.584-5.88l-0.308,0.28l0,3.892l0,1.596c0,0.476-0.196,0.7-0.644,0.7l-2.1,0c-0.42,0-0.644-0.252-0.644-0.672l0-18.368c0-0.448,0.168-0.616,0.588-0.672l2.044-0.28c0.084,0,0.14-0.028,0.224-0.028c0.336,0,0.532,0.168,0.532,0.644l0,4.704l0,6.524l0.056,0l3.668-5.04c0.224-0.308,0.392-0.392,0.756-0.392l2.492,0c0.224,0,0.364,0.112,0.364,0.28c0,0.084-0.028,0.196-0.112,0.308l-4.004,5.04l4.536,7.084c0.112,0.168,0.196,0.364,0.196,0.532z M194.658,114.784c0,0.252-0.252,0.336-0.532,0.336l-2.408,0c-0.504,0-0.84-0.14-1.12-0.588l-3.584-5.88l-0.308,0.28l0,3.892l0,1.596c0,0.476-0.196,0.7-0.644,0.7l-2.1,0c-0.42,0-0.644-0.252-0.644-0.672l0-18.368c0-0.448,0.168-0.616,0.588-0.672l2.044-0.28c0.084,0,0.14-0.028,0.224-0.028c0.336,0,0.532,0.168,0.532,0.644l0,4.704l0,6.524l0.056,0l3.668-5.04c0.224-0.308,0.392-0.392,0.756-0.392l2.492,0c0.224,0,0.364,0.112,0.364,0.28c0,0.084-0.028,0.196-0.112,0.308l-4.004,5.04l4.536,7.084c0.112,0.168,0.196,0.364,0.196,0.532z M202.316,97.984c0,1.092-0.952,1.764-1.876,1.764s-1.904-0.616-1.904-1.736s0.924-1.792,1.904-1.792c0.952,0,1.876,0.644,1.876,1.764z M202.148,114.42c0,0.504-0.224,0.7-0.7,0.7l-1.96,0c-0.504,0-0.728-0.196-0.728-0.7l0-12.236c0-0.476,0.28-0.644,0.728-0.644l1.96,0c0.448,0,0.7,0.14,0.7,0.644l0,12.236z"/><path fill="#e8e8e8" d="M241.34,114.364c0,0.616-0.252,0.756-0.672,0.756l-1.876,0c-0.42,0-0.784-0.196-1.064-0.588l-9.128-12.488l-0.056,0l0,12.348c0,0.532-0.252,0.728-0.728,0.728l-2.016,0c-0.532,0-0.756-0.14-0.756-0.7l0-17.92c0-0.588,0.252-0.756,0.756-0.756l1.82,0c0.448,0,0.672,0.14,0.952,0.532l9.212,12.656l0.056,0l0-12.46c0-0.532,0.252-0.728,0.728-0.728l2.1,0c0.588,0,0.672,0.308,0.672,0.756l0,17.864z M259.974,114.588c0,0.336-0.224,0.532-0.56,0.532l-1.344,0c-1.456,0-2.1-0.7-2.296-1.652l-0.056,0c-0.7,1.036-2.52,1.988-4.06,1.988c-3.948,0-5.74-3.248-5.74-6.888c0-4.844,2.912-7.392,6.048-7.392c1.484,0,2.884,0.672,3.584,1.624l0.056-0.756c0.028-0.308,0.252-0.504,0.588-0.504l1.96,0c0.364,0,0.588,0.196,0.588,0.616l0,9.716c0,0.392,0.056,0.672,0.168,0.812c0.084,0.084,0.196,0.112,0.336,0.112l0.224,0c0.336,0,0.504,0.112,0.504,0.476l0,1.316z M255.354,110.78l0-5.404c-0.56-0.812-1.708-1.428-2.772-1.428c-1.708,0-3.164,1.456-3.164,4.396c0,2.352,0.896,4.34,2.968,4.34c1.372,0,2.548-1.036,2.968-1.904z M276.144,114.42c0,0.476-0.28,0.7-0.616,0.7l-1.82,0c-0.448,0-0.644-0.224-0.672-0.56l-0.056-0.756c-0.784,0.896-2.352,1.652-3.808,1.652c-4.06,0-5.908-3.22-5.908-6.972c0-3.92,2.184-7.336,6.132-7.336c1.26,0,2.576,0.504,3.36,1.316l0-6.3c0-0.504,0.14-0.7,0.588-0.756l2.072-0.28c0.028,0,0.252-0.028,0.28-0.028c0.336,0,0.448,0.14,0.448,0.56l0,18.76z M272.756,111.312l0-6.076c-0.56-0.756-1.624-1.372-2.688-1.372c-2.268,0-3.276,2.128-3.276,4.424s0.84,4.424,3.108,4.424c1.036,0,2.296-0.7,2.856-1.4z M294.526,114.588c0,0.336-0.224,0.532-0.56,0.532l-1.344,0c-1.456,0-2.1-0.7-2.296-1.652l-0.056,0c-0.7,1.036-2.52,1.988-4.06,1.988c-3.948,0-5.74-3.248-5.74-6.888c0-4.844,2.912-7.392,6.048-7.392c1.484,0,2.884,0.672,3.584,1.624l0.056-0.756c0.028-0.308,0.252-0.504,0.588-0.504l1.96,0c0.364,0,0.588,0.196,0.588,0.616l0,9.716c0,0.392,0.056,0.672,0.168,0.812c0.084,0.084,0.196,0.112,0.336,0.112l0.224,0c0.336,0,0.504,0.112,0.504,0.476l0,1.316z M289.906,110.78l0-5.404c-0.56-0.812-1.708-1.428-2.772-1.428c-1.708,0-3.164,1.456-3.164,4.396c0,2.352,0.896,4.34,2.968,4.34c1.372,0,2.548-1.036,2.968-1.904z M307.728,95.856c0,0.14-0.028,0.308-0.056,0.476l-0.196,1.176c-0.056,0.252-0.14,0.42-0.364,0.42c-0.112,0-0.196-0.028-0.308-0.056c-0.56-0.196-1.232-0.364-1.904-0.364c-1.68,0-2.044,1.12-2.044,2.744l0,1.288l3.108,0c0.336,0,0.56,0.112,0.56,0.476l0,1.316c0,0.364-0.224,0.532-0.56,0.532l-3.108,0l0,10.472c0,0.504-0.168,0.784-0.7,0.784l-2.016,0c-0.476,0-0.672-0.252-0.672-0.728l0-10.528l-1.512,0c-0.504,0-0.588-0.112-0.588-0.7l0-1.064c0-0.336,0.168-0.56,0.532-0.56l1.568,0l0-0.756c0-0.924,0.084-1.652,0.196-2.268c0.448-2.352,1.932-3.78,4.732-3.78c0.924,0,2.156,0.224,2.968,0.588c0.28,0.112,0.364,0.28,0.364,0.532z"/></svg>
