<svg width="374" height="51" viewBox="0 0 374 51" fill="none" xmlns="http://www.w3.org/2000/svg">
<path d="M0.363636 50V43.5909L22.9773 12.5909H0.386364V3.45454H37.2045V9.86364L14.5909 40.8636H37.1818V50H0.363636ZM53.9261 50.5909C51.6989 50.5909 49.7216 50.2197 47.9943 49.4773C46.2822 48.7197 44.9261 47.5833 43.9261 46.0682C42.9413 44.5379 42.4489 42.6212 42.4489 40.3182C42.4489 38.3788 42.7898 36.7424 43.4716 35.4091C44.1534 34.0758 45.0928 32.9924 46.2898 32.1591C47.4867 31.3258 48.8655 30.697 50.4261 30.2727C51.9867 29.8333 53.6534 29.5379 55.4261 29.3864C57.411 29.2045 59.0095 29.0152 60.2216 28.8182C61.4337 28.6061 62.3125 28.3106 62.858 27.9318C63.4186 27.5379 63.6989 26.9848 63.6989 26.2727V26.1591C63.6989 24.9924 63.2973 24.0909 62.4943 23.4545C61.6913 22.8182 60.608 22.5 59.2443 22.5C57.7746 22.5 56.5928 22.8182 55.6989 23.4545C54.8049 24.0909 54.2367 24.9697 53.9943 26.0909L43.7443 25.7273C44.0473 23.6061 44.8277 21.7121 46.0852 20.0455C47.358 18.3636 49.1004 17.0455 51.3125 16.0909C53.5398 15.1212 56.214 14.6364 59.3352 14.6364C61.5625 14.6364 63.6155 14.9015 65.4943 15.4318C67.3731 15.947 69.0095 16.7045 70.4034 17.7045C71.7973 18.6894 72.8731 19.9015 73.6307 21.3409C74.4034 22.7803 74.7898 24.4242 74.7898 26.2727V50H64.3352V45.1364H64.0625C63.4413 46.3182 62.6458 47.3182 61.6761 48.1364C60.7216 48.9545 59.5928 49.5682 58.2898 49.9773C57.0019 50.3864 55.5473 50.5909 53.9261 50.5909ZM57.358 43.3182C58.5549 43.3182 59.6307 43.0758 60.5852 42.5909C61.5549 42.1061 62.3277 41.4394 62.9034 40.5909C63.4792 39.7273 63.767 38.7273 63.767 37.5909V34.2727C63.4489 34.4394 63.0625 34.5909 62.608 34.7273C62.1686 34.8636 61.6837 34.9924 61.1534 35.1136C60.6231 35.2348 60.0777 35.3409 59.517 35.4318C58.9564 35.5227 58.4186 35.6061 57.9034 35.6818C56.858 35.8485 55.964 36.1061 55.2216 36.4545C54.4943 36.803 53.9337 37.2576 53.5398 37.8182C53.161 38.3636 52.9716 39.0152 52.9716 39.7727C52.9716 40.9242 53.3807 41.803 54.1989 42.4091C55.0322 43.0152 56.0852 43.3182 57.358 43.3182ZM91.608 40.8409L91.6534 27.5909H93.1989L103.017 15.0909H115.608L101.017 33H98.0852L91.608 40.8409ZM81.5852 50V3.45454H92.6989V50H81.5852ZM103.267 50L94.1307 35.5L101.449 27.6136L116.108 50H103.267ZM129.608 40.8409L129.653 27.5909H131.199L141.017 15.0909H153.608L139.017 33H136.085L129.608 40.8409ZM119.585 50V3.45454H130.699V50H119.585ZM141.267 50L132.131 35.5L139.449 27.6136L154.108 50H141.267ZM157.585 50V15.0909H168.699V50H157.585ZM163.153 11.0227C161.593 11.0227 160.252 10.5076 159.131 9.47727C158.009 8.43182 157.449 7.17424 157.449 5.70454C157.449 4.25 158.009 3.00757 159.131 1.97727C160.252 0.931816 161.593 0.409088 163.153 0.409088C164.729 0.409088 166.07 0.931816 167.176 1.97727C168.297 3.00757 168.858 4.25 168.858 5.70454C168.858 7.17424 168.297 8.43182 167.176 9.47727C166.07 10.5076 164.729 11.0227 163.153 11.0227Z" fill="white"/>
<path d="M229.136 3.45454V50H219.591L201.068 23.1364H200.773V50H189.523V3.45454H199.205L217.523 30.2727H217.909V3.45454H229.136ZM246.051 50.5909C243.824 50.5909 241.847 50.2197 240.119 49.4773C238.407 48.7197 237.051 47.5833 236.051 46.0682C235.066 44.5379 234.574 42.6212 234.574 40.3182C234.574 38.3788 234.915 36.7424 235.597 35.4091C236.278 34.0758 237.218 32.9924 238.415 32.1591C239.612 31.3258 240.991 30.697 242.551 30.2727C244.112 29.8333 245.778 29.5379 247.551 29.3864C249.536 29.2045 251.134 29.0152 252.347 28.8182C253.559 28.6061 254.438 28.3106 254.983 27.9318C255.544 27.5379 255.824 26.9848 255.824 26.2727V26.1591C255.824 24.9924 255.422 24.0909 254.619 23.4545C253.816 22.8182 252.733 22.5 251.369 22.5C249.9 22.5 248.718 22.8182 247.824 23.4545C246.93 24.0909 246.362 24.9697 246.119 26.0909L235.869 25.7273C236.172 23.6061 236.953 21.7121 238.21 20.0455C239.483 18.3636 241.225 17.0455 243.438 16.0909C245.665 15.1212 248.339 14.6364 251.46 14.6364C253.688 14.6364 255.741 14.9015 257.619 15.4318C259.498 15.947 261.134 16.7045 262.528 17.7045C263.922 18.6894 264.998 19.9015 265.756 21.3409C266.528 22.7803 266.915 24.4242 266.915 26.2727V50H256.46V45.1364H256.188C255.566 46.3182 254.771 47.3182 253.801 48.1364C252.847 48.9545 251.718 49.5682 250.415 49.9773C249.127 50.3864 247.672 50.5909 246.051 50.5909ZM249.483 43.3182C250.68 43.3182 251.756 43.0758 252.71 42.5909C253.68 42.1061 254.453 41.4394 255.028 40.5909C255.604 39.7273 255.892 38.7273 255.892 37.5909V34.2727C255.574 34.4394 255.188 34.5909 254.733 34.7273C254.294 34.8636 253.809 34.9924 253.278 35.1136C252.748 35.2348 252.203 35.3409 251.642 35.4318C251.081 35.5227 250.544 35.6061 250.028 35.6818C248.983 35.8485 248.089 36.1061 247.347 36.4545C246.619 36.803 246.059 37.2576 245.665 37.8182C245.286 38.3636 245.097 39.0152 245.097 39.7727C245.097 40.9242 245.506 41.803 246.324 42.4091C247.157 43.0152 248.21 43.3182 249.483 43.3182ZM286.46 50.5C283.884 50.5 281.544 49.8333 279.438 48.5C277.331 47.1667 275.65 45.1667 274.392 42.5C273.134 39.8333 272.506 36.5227 272.506 32.5682C272.506 28.4621 273.157 25.0833 274.46 22.4318C275.763 19.7803 277.468 17.8182 279.574 16.5455C281.695 15.2727 283.975 14.6364 286.415 14.6364C288.248 14.6364 289.816 14.9545 291.119 15.5909C292.422 16.2121 293.498 17.0152 294.347 18C295.195 18.9848 295.839 20.0076 296.278 21.0682H296.506V3.45454H307.619V50H296.619V44.3409H296.278C295.809 45.4167 295.142 46.4242 294.278 47.3636C293.415 48.303 292.331 49.0606 291.028 49.6364C289.741 50.2121 288.218 50.5 286.46 50.5ZM290.324 41.8409C291.672 41.8409 292.824 41.4621 293.778 40.7045C294.733 39.9318 295.468 38.8485 295.983 37.4545C296.498 36.0606 296.756 34.4242 296.756 32.5455C296.756 30.6364 296.498 28.9924 295.983 27.6136C295.483 26.2348 294.748 25.1742 293.778 24.4318C292.824 23.6894 291.672 23.3182 290.324 23.3182C288.945 23.3182 287.778 23.697 286.824 24.4545C285.869 25.2121 285.142 26.2803 284.642 27.6591C284.157 29.0379 283.915 30.6667 283.915 32.5455C283.915 34.4242 284.165 36.0606 284.665 37.4545C285.165 38.8485 285.884 39.9318 286.824 40.7045C287.778 41.4621 288.945 41.8409 290.324 41.8409ZM324.489 50.5909C322.261 50.5909 320.284 50.2197 318.557 49.4773C316.845 48.7197 315.489 47.5833 314.489 46.0682C313.504 44.5379 313.011 42.6212 313.011 40.3182C313.011 38.3788 313.352 36.7424 314.034 35.4091C314.716 34.0758 315.655 32.9924 316.852 32.1591C318.049 31.3258 319.428 30.697 320.989 30.2727C322.549 29.8333 324.216 29.5379 325.989 29.3864C327.973 29.2045 329.572 29.0152 330.784 28.8182C331.996 28.6061 332.875 28.3106 333.42 27.9318C333.981 27.5379 334.261 26.9848 334.261 26.2727V26.1591C334.261 24.9924 333.86 24.0909 333.057 23.4545C332.254 22.8182 331.17 22.5 329.807 22.5C328.337 22.5 327.155 22.8182 326.261 23.4545C325.367 24.0909 324.799 24.9697 324.557 26.0909L314.307 25.7273C314.61 23.6061 315.39 21.7121 316.648 20.0455C317.92 18.3636 319.663 17.0455 321.875 16.0909C324.102 15.1212 326.777 14.6364 329.898 14.6364C332.125 14.6364 334.178 14.9015 336.057 15.4318C337.936 15.947 339.572 16.7045 340.966 17.7045C342.36 18.6894 343.436 19.9015 344.193 21.3409C344.966 22.7803 345.352 24.4242 345.352 26.2727V50H334.898V45.1364H334.625C334.004 46.3182 333.208 47.3182 332.239 48.1364C331.284 48.9545 330.155 49.5682 328.852 49.9773C327.564 50.3864 326.11 50.5909 324.489 50.5909ZM327.92 43.3182C329.117 43.3182 330.193 43.0758 331.148 42.5909C332.117 42.1061 332.89 41.4394 333.466 40.5909C334.042 39.7273 334.33 38.7273 334.33 37.5909V34.2727C334.011 34.4394 333.625 34.5909 333.17 34.7273C332.731 34.8636 332.246 34.9924 331.716 35.1136C331.186 35.2348 330.64 35.3409 330.08 35.4318C329.519 35.5227 328.981 35.6061 328.466 35.6818C327.42 35.8485 326.527 36.1061 325.784 36.4545C325.057 36.803 324.496 37.2576 324.102 37.8182C323.723 38.3636 323.534 39.0152 323.534 39.7727C323.534 40.9242 323.943 41.803 324.761 42.4091C325.595 43.0152 326.648 43.3182 327.92 43.3182ZM371.989 15.0909V23.2727H349.534V15.0909H371.989ZM354.216 50V13.3182C354.216 10.6212 354.723 8.38636 355.739 6.61364C356.754 4.82576 358.163 3.49242 359.966 2.61364C361.769 1.71969 363.852 1.27272 366.216 1.27272C367.761 1.27272 369.216 1.39394 370.58 1.63636C371.958 1.86364 372.981 2.06818 373.648 2.25L371.875 10.3864C371.466 10.25 370.966 10.1364 370.375 10.0455C369.799 9.95454 369.254 9.90909 368.739 9.90909C367.436 9.90909 366.542 10.197 366.057 10.7727C365.572 11.3485 365.33 12.1364 365.33 13.1364V50H354.216Z" fill="#D9D9D9"/>
</svg>
